#!OML:ASF X:\für Bonn\!DataBase\2005_08_10_Bjorn_Final\c3d\bjorn.ASF
:FULLY-SPECIFIED
:DEGREES
32
root -0.115153 19.3633 4.04273 -194.661 -29.2319 184.867
lowerback 20.1248 0.192778 -8.67642
upperback 16.6868 -4.55563 -5.94627
thorax 7.25533 -4.25748 -1.22323
lowerneck -9.98985 -9.77555 -3.86169
upperneck 9.43034 -15.7177 17.5499
head 6.28771 -7.07431 4.64447
rclavicle 1.90833e-014 4.45278e-014
rhumerus -39.8036 -26.7657 -77.9502
rradius 17.0401
rwrist 30.9729
rhand -2.69788 12.6701
rfingers 7.12502
rthumb 23.0039 -15.9772
lclavicle 1.90833e-014 4.45278e-014
lhumerus 29.7751 -12.0948 77.0156
lradius 67.4526
lwrist -12.4661
lhand -37.561 -18.2872
lfingers 7.12502
lthumb -10.6159 11.4247
rfemur -54.6961 3.90349 12.857
rtibia 108.604
rfoot -4.71694 16.3096
rtoes -25.0954
lfemur 5.47198 -4.3197 -15.7564
ltibia 20.7141
lfoot -3.48253 -19.8112
ltoes 9.41159
33
root -0.0761256 19.3853 4.06632 -195.314 -30.2404 185.506
lowerback 21.1838 0.113672 -8.70455
upperback 17.1411 -4.93522 -5.8307
thorax 7.29422 -4.53376 -1.01291
lowerneck -9.89216 -9.78136 -4.05927
upperneck 8.50413 -15.6468 18.1975
head 6.05018 -7.08488 4.89697
rclavicle -2.8625e-014 -9.22361e-014
rhumerus -39.4071 -25.9711 -78.5724
rradius 17.3052
rwrist 30.2968
rhand -2.69693 12.7891
rfingers 7.12502
rthumb 23.0048 -15.8581
lclavicle -2.8625e-014 -9.22361e-014
lhumerus 31.7458 -12.2292 77.3935
lradius 68.0669
lwrist -12.251
lhand -37.8722 -18.9259
lfingers 7.12502
lthumb -10.916 10.7704
rfemur -56.3416 3.37769 12.8023
rtibia 110.3
rfoot -4.82476 16.5871
rtoes -24.7211
lfemur 5.78476 -5.04133 -15.3458
ltibia 20.232
lfoot -2.89998 -19.9488
ltoes 9.84569
34
root -0.0388652 19.405 4.09018 -195.914 -31.2015 186.185
lowerback 22.1865 0.0374304 -8.65593
upperback 17.5642 -5.28246 -5.70765
thorax 7.32854 -4.78237 -0.834916
lowerneck -9.73904 -9.80064 -4.23487
upperneck 7.50184 -15.5875 18.863
head 5.7828 -7.1136 5.15335
rclavicle 1.00187e-013 0
rhumerus -39.0971 -25.4111 -79.0126
rradius 17.4973
rwrist 29.8068
rhand -2.7025 12.967
rfingers 7.12502
rthumb 22.9995 -15.6808
lclavicle 1.00187e-013 0
lhumerus 33.7093 -12.4706 77.7566
lradius 68.624
lwrist -12.1586
lhand -38.1206 -19.2554
lfingers 7.12502
lthumb -11.1556 10.428
rfemur -58.097 2.79284 12.7329
rtibia 111.946
rfoot -4.94865 16.7603
rtoes -24.362
lfemur 5.96481 -5.79744 -14.9289
ltibia 19.8207
lfoot -2.40151 -20.0206
ltoes 9.98436
35
root -0.00257955 19.4223 4.11307 -196.476 -32.1185 186.869
lowerback 23.1792 -0.0278229 -8.65197
upperback 17.953 -5.61368 -5.51968
thorax 7.35041 -5.0278 -0.556264
lowerneck -9.61767 -9.82328 -4.54912
upperneck 6.51284 -15.5095 19.533
head 5.53595 -7.13642 5.43357
rclavicle -7.63333e-014 -4.45278e-014
rhumerus -38.8094 -24.8416 -79.3035
rradius 17.6899
rwrist 29.4113
rhand -2.72345 13.1262
rfingers 7.12502
rthumb 22.9794 -15.5242
lclavicle -7.63333e-014 -4.45278e-014
lhumerus 35.6873 -12.6858 78.2083
lradius 69.0814
lwrist -12.1676
lhand -38.2882 -19.3118
lfingers 7.12502
lthumb -11.3172 10.3629
rfemur -59.9066 2.15875 12.6246
rtibia 113.536
rfoot -5.09971 16.8656
rtoes -24.088
lfemur 6.04455 -6.53947 -14.5174
ltibia 19.5105
lfoot -1.92915 -20.0632
ltoes 10.4227
36
root 0.0329649 19.4385 4.13626 -197.032 -32.9918 187.633
lowerback 24.1657 -0.115918 -8.55904
upperback 18.2911 -5.94337 -5.32521
thorax 7.31696 -5.25617 -0.305953
lowerneck -9.47034 -9.8415 -4.86196
upperneck 5.58766 -15.4319 20.1707
head 5.30296 -7.162 5.70474
rclavicle -3.18055e-014 -1.01778e-013
rhumerus -38.6262 -24.3712 -79.4884
rradius 17.8689
rwrist 29.2205
rhand -2.74116 13.2806
rfingers 7.12502
rthumb 22.9624 -15.3718
lclavicle -3.18055e-014 -1.01778e-013
lhumerus 37.6456 -12.9588 78.6267
lradius 69.4263
lwrist -12.2209
lhand -38.4489 -19.2014
lfingers 7.12502
lthumb -11.4722 10.4647
rfemur -61.7557 1.46516 12.5713
rtibia 115.029
rfoot -5.24075 16.8834
rtoes -23.7037
lfemur 5.99725 -7.20967 -14.0234
ltibia 19.2964
lfoot -1.54186 -20.1405
ltoes 10.5743
37
root 0.0685222 19.4515 4.16029 -197.562 -33.8411 188.398
lowerback 25.1605 -0.195562 -8.48085
upperback 18.6012 -6.25915 -5.10643
thorax 7.26161 -5.47824 -0.0137286
lowerneck -9.28743 -9.84785 -5.24854
upperneck 4.62816 -15.3282 20.8519
head 5.06156 -7.18325 6.00712
rclavicle 8.42847e-014 7.63333e-014
rhumerus -38.4912 -24.0467 -79.527
rradius 18.0289
rwrist 29.2963
rhand -2.77457 13.4225
rfingers 7.12502
rthumb 22.9303 -15.2339
lclavicle 8.42847e-014 7.63333e-014
lhumerus 39.5717 -13.2457 79.0579
lradius 69.6436
lwrist -12.3842
lhand -38.7126 -19.0162
lfingers 7.12502
lthumb -11.7265 10.6355
rfemur -63.619 0.693572 12.477
rtibia 116.425
rfoot -5.34739 16.8866
rtoes -23.2979
lfemur 5.87602 -7.88991 -13.5356
ltibia 19.1381
lfoot -1.14385 -20.2226
ltoes 10.9257
38
root 0.102248 19.4676 4.18375 -198.089 -34.6367 189.199
lowerback 26.1578 -0.270983 -8.33896
upperback 18.8585 -6.54135 -4.88437
thorax 7.14229 -5.66932 0.256217
lowerneck -9.01699 -9.85673 -5.68342
upperneck 3.70801 -15.2339 21.5638
head 4.82654 -7.21512 6.33088
rclavicle -3.33958e-014 -2.54444e-014
rhumerus -38.4383 -23.4982 -79.625
rradius 18.2389
rwrist 29.0962
rhand -2.86763 13.472
rfingers 7.12502
rthumb 22.841 -15.1955
lclavicle -3.33958e-014 -2.54444e-014
lhumerus 41.3854 -13.5871 79.5171
lradius 69.8116
lwrist -12.6159
lhand -38.9686 -18.7716
lfingers 7.12502
lthumb -11.9733 10.8659
rfemur -65.4527 -0.0969672 12.4149
rtibia 117.684
rfoot -5.54716 16.763
rtoes -23.325
lfemur 5.70805 -8.51593 -13.0119
ltibia 18.9951
lfoot -0.768024 -20.3119
ltoes 11.1657
39
root 0.134445 19.4831 4.20847 -198.593 -35.3781 190.017
lowerback 27.1665 -0.348122 -8.12368
upperback 19.0655 -6.79609 -4.69539
thorax 6.94976 -5.82883 0.460378
lowerneck -8.70005 -9.86292 -6.01209
upperneck 2.81958 -15.15 22.2255
head 4.5832 -7.25745 6.62443
rclavicle 7.15625e-014 1.90833e-014
rhumerus -38.5035 -22.843 -79.7938
rradius 18.5167
rwrist 28.8138
rhand -2.93263 13.4518
rfingers 7.12502
rthumb 22.7786 -15.2234
lclavicle 7.15625e-014 1.90833e-014
lhumerus 43.0827 -14.0029 79.9862
lradius 70.0278
lwrist -12.9296
lhand -39.0897 -18.4302
lfingers 7.12502
lthumb -12.0902 11.2005
rfemur -67.2675 -0.889196 12.367
rtibia 118.813
rfoot -5.90615 16.4929
rtoes -24.2417
lfemur 5.48942 -9.07081 -12.4606
ltibia 18.8653
lfoot -0.377984 -20.4337
ltoes 11.4016
40
root 0.166226 19.5005 4.23133 -199.073 -36.0387 190.846
lowerback 28.0739 -0.393968 -7.87102
upperback 19.3202 -6.99961 -4.51386
thorax 6.86228 -5.96785 0.612184
lowerneck -8.51019 -9.88248 -6.28296
upperneck 1.93303 -15.0948 22.8905
head 4.3646 -7.31217 6.90127
rclavicle -1.145e-013 -2.19458e-013
rhumerus -38.5055 -22.2026 -80.0494
rradius 18.8095
rwrist 28.4994
rhand -3.07921 13.4618
rfingers 7.12502
rthumb 22.6379 -15.2306
lclavicle -1.145e-013 -2.19458e-013
lhumerus 44.9029 -14.4562 80.32
lradius 70.194
lwrist -13.2089
lhand -39.1301 -18.05
lfingers 7.12502
lthumb -12.1291 11.5784
rfemur -69.0563 -1.60411 12.3886
rtibia 119.802
rfoot -6.25891 16.142
rtoes -25.2592
lfemur 5.23079 -9.57605 -11.8832
ltibia 18.7556
lfoot -0.0474837 -20.5502
ltoes 11.5242
41
root 0.195979 19.5169 4.25566 -199.491 -36.6602 191.656
lowerback 29.2051 -0.409338 -7.5633
upperback 19.6406 -7.16192 -4.31209
thorax 6.35647 -6.06287 0.725875
lowerneck -8.24214 -9.92206 -6.43797
upperneck 1.0152 -15.0725 23.5302
head 4.11865 -7.39578 7.15357
rclavicle 1.17681e-013 1.11319e-013
rhumerus -38.5981 -21.5569 -80.3573
rradius 19.135
rwrist 28.0508
rhand -3.15337 13.4212
rfingers 7.12502
rthumb 22.5668 -15.2798
lclavicle 1.17681e-013 1.11319e-013
lhumerus 46.6779 -15.0173 80.608
lradius 70.2142
lwrist -13.2511
lhand -38.9742 -18.2292
lfingers 7.12502
lthumb -11.9788 11.4081
rfemur -70.822 -2.33301 12.4084
rtibia 120.649
rfoot -6.44099 15.9175
rtoes -25.4392
lfemur 4.87866 -10.0256 -11.3078
ltibia 18.6893
lfoot 0.271008 -20.6915
ltoes 11.5293
42
root 0.225305 19.5307 4.28044 -199.872 -37.1847 192.478
lowerback 30.0899 -0.394978 -7.22077
upperback 19.8204 -7.23847 -4.10046
thorax 6.19794 -6.11842 0.833724
lowerneck -8.0552 -9.99033 -6.62314
upperneck 0.115776 -15.0861 24.1738
head 3.90282 -7.49517 7.40496
rclavicle 3.33958e-014 -3.49861e-014
rhumerus -38.6221 -20.6779 -80.7415
rradius 19.4642
rwrist 27.3182
rhand -3.22763 13.4277
rfingers 7.12502
rthumb 22.4955 -15.282
lclavicle 3.33958e-014 -3.49861e-014
lhumerus 48.441 -15.5415 81.0177
lradius 69.9687
lwrist -13.5301
lhand -38.8047 -19.1686
lfingers 7.12502
lthumb -11.8153 10.4781
rfemur -72.5577 -2.94596 12.5135
rtibia 121.369
rfoot -6.56058 15.7679
rtoes -25.332
lfemur 4.45489 -10.4052 -10.6968
ltibia 18.6842
lfoot 0.489884 -20.8288
ltoes 11.3822
43
root 0.254483 19.5439 4.3056 -200.183 -37.647 193.282
lowerback 30.8585 -0.36459 -6.88369
upperback 20.0228 -7.28148 -3.88639
thorax 6.11746 -6.16139 0.927576
lowerneck -7.83805 -10.0448 -6.79811
upperneck -0.864266 -15.0692 24.8383
head 3.657 -7.59442 7.66993
rclavicle 7.63333e-014 6.36111e-014
rhumerus -38.5674 -20.055 -81.0074
rradius 19.6802
rwrist 26.9099
rhand -3.24126 13.4435
rfingers 7.12502
rthumb 22.4824 -15.2678
lclavicle 7.63333e-014 6.36111e-014
lhumerus 50.2706 -16.0464 81.321
lradius 69.6518
lwrist -13.8635
lhand -38.6211 -20.1167
lfingers 7.12502
lthumb -11.6382 9.54009
rfemur -74.2867 -3.4942 12.6693
rtibia 121.961
rfoot -6.72508 15.5935
rtoes -25.4475
lfemur 3.91164 -10.7229 -10.066
ltibia 18.7736
lfoot 0.736499 -20.9685
ltoes 11.4954
